<?xml version="1.0" encoding="utf-8"?>
<!-- Generator: Adobe Illustrator 25.0.0, SVG Export Plug-In . SVG Version: 6.00 Build 0)  -->
<svg version="1.1" id="Layer_1" xmlns="http://www.w3.org/2000/svg" xmlns:xlink="http://www.w3.org/1999/xlink" x="0px" y="0px"
	 viewBox="0 0 605.6 338.7" style="enable-background:new 0 0 605.6 338.7;" xml:space="preserve">
<style type="text/css">
	.st0{fill-rule:evenodd;clip-rule:evenodd;fill:#231F20;}
	.st1{fill-rule:evenodd;clip-rule:evenodd;fill:#0071BB;}
	.st2{fill-rule:evenodd;clip-rule:evenodd;fill:#F32735;}
	.st3{fill:#0071BB;}
</style>
<g>
	<path class="st0" d="M141.6,64.2l-21.8-0.1c2.6,34-13.2,40.8-40.9,19.1L67,96.1c18,27.5,10.7,41.5-26.2,35.3l-2.2,19.3
		c32.4,4,29.4,39.6-1.1,41.9l8.3,20.2c24.1-13,46.6,8.7,21.3,29.9l15.5,15.4c18.8-22.9,42-15,38.9,16.3l19.3,0.1l0.4-35.5
		c-88.7-19.5-81-124.4-0.7-133.7L141.6,64.2z"/>
	<path class="st1" d="M148.4,134.4c20.8,0.1,37.9,17.1,38.1,37.9c0.2,20.8-16.4,37.6-37.2,37.5s-37.9-17.1-38.1-37.9
		C111,151,127.7,134.3,148.4,134.4z"/>
	<path class="st2" d="M188,78.4c10.1,0,18.4,8.3,18.5,18.5c0.1,10.1-8,18.3-18.1,18.3s-18.4-8.3-18.5-18.5
		C169.8,86.6,177.9,78.4,188,78.4z"/>
	<path class="st0" d="M200.6,126.8c10.5,12.2,17,28.1,17.2,45.5c0.4,37.9-29,68.4-65.6,68.2c0.1,6.5,0.2,13,0.2,19.5
		c47.1,0.2,84.9-39,84.3-87.6c-0.2-18.3-5.8-35.4-15.3-49.5L200.6,126.8z"/>
</g>
<g>
	<g>
		<path class="st3" d="M316.5,249.7l6.2-0.9c0.3,2.5,1.4,4.4,3,5.8c1.6,1.4,3.8,2,6.7,2c2.8,0,5.1-0.6,6.4-1.8
			c1.4-1.2,2.1-2.5,2.1-4.1c0-1.4-0.6-2.5-1.9-3.4c-0.8-0.5-3.1-1.3-6.4-2.1c-4.6-1.2-7.8-2.2-9.6-3.1c-1.8-0.8-3.2-2-4.1-3.6
			c-0.9-1.5-1.4-3.2-1.4-5c0-1.7,0.4-3.2,1.2-4.6c0.7-1.4,1.8-2.6,3.2-3.5c0.9-0.7,2.3-1.4,4-1.8c1.7-0.5,3.5-0.7,5.5-0.7
			c3,0,5.5,0.4,7.7,1.3c2.2,0.8,3.9,2,4.8,3.5c1.1,1.5,1.8,3.4,2.2,5.8l-6.2,0.8c-0.3-1.9-1.1-3.4-2.4-4.5c-1.4-1.1-3.3-1.6-5.7-1.6
			c-2.8,0-5,0.5-6.2,1.5c-1.3,0.9-1.9,2.1-1.9,3.4c0,0.8,0.2,1.6,0.7,2.2c0.5,0.6,1.4,1.3,2.4,1.7c0.6,0.2,2.5,0.7,5.6,1.6
			c4.4,1.2,7.6,2.2,9.4,3c1.8,0.7,3.2,1.9,4.1,3.3c1.1,1.5,1.5,3.3,1.5,5.4c0,2.1-0.6,4.1-1.8,5.9c-1.3,1.9-3,3.3-5.4,4.3
			c-2.3,1.1-5,1.6-7.9,1.6c-4.8,0-8.5-1.1-11.1-3.1C318.9,256.6,317.3,253.6,316.5,249.7z"/>
		<path class="st3" d="M380.5,248.7l6.5,0.8c-1.1,3.8-3,6.7-5.7,8.9c-2.7,2.1-6.3,3.2-10.6,3.2c-5.5,0-9.8-1.7-13-5.1
			c-3.2-3.4-4.7-8.1-4.7-14.1c0-6.2,1.6-11.2,4.8-14.5c3.3-3.5,7.4-5.2,12.5-5.2c5,0,9.1,1.7,12.2,5.1c3.2,3.4,4.7,8.1,4.7,14.3
			c0,0.3,0,0.9,0,1.7h-27.7c0.2,4.1,1.4,7.3,3.5,9.4c2.1,2.2,4.6,3.3,7.8,3.3c2.3,0,4.3-0.6,5.9-1.8
			C378.3,253.4,379.6,251.5,380.5,248.7z M359.8,238.5h20.8c-0.3-3.2-1.1-5.5-2.4-7.1c-2-2.4-4.6-3.7-7.8-3.7c-2.8,0-5.4,0.9-7.3,3
			C361,232.7,360,235.3,359.8,238.5z"/>
		<path class="st3" d="M394.9,260.7v-37.2h5.7v5.7c1.5-2.6,2.7-4.4,4-5.3c1.3-0.8,2.5-1.3,4-1.3c2.1,0,4.3,0.6,6.5,2l-2.2,5.9
			c-1.6-0.9-3.1-1.4-4.6-1.4c-1.4,0-2.6,0.4-3.7,1.3c-1.1,0.8-1.9,2-2.3,3.5c-0.7,2.2-1.1,4.7-1.1,7.4v19.5L394.9,260.7L394.9,260.7
			z"/>
		<path class="st3" d="M429.2,260.7l-14.1-37.2h6.6l8,22.4c0.8,2.4,1.7,5,2.4,7.5c0.5-2,1.4-4.3,2.3-7.1l8.2-22.8h6.5l-14.1,37.2
			H429.2L429.2,260.7z"/>
		<path class="st3" d="M454.9,216.6v-7.3h6.3v7.3H454.9z M454.9,260.7v-37.2h6.3v37.2H454.9z"/>
		<path class="st3" d="M495,247.1l6.2,0.8c-0.6,4.3-2.4,7.6-5.2,10c-2.8,2.4-6.2,3.6-10.3,3.6c-5.1,0-9.2-1.7-12.3-5
			c-3.1-3.4-4.6-8.1-4.6-14.3c0-4,0.6-7.5,2-10.5s3.4-5.3,6.1-6.7c2.7-1.5,5.7-2.2,8.9-2.2c4,0,7.4,1.1,9.9,3.1c2.5,2,4.2,5,5,8.8
			l-6.1,0.9c-0.6-2.5-1.6-4.4-3.2-5.7c-1.5-1.3-3.3-1.9-5.4-1.9c-3.2,0-5.8,1.2-7.8,3.5c-2,2.3-3,5.9-3,10.9c0,5.1,0.9,8.6,2.8,10.9
			c1.9,2.2,4.4,3.4,7.5,3.4c2.4,0,4.5-0.7,6.2-2.3C493.5,252.6,494.6,250.3,495,247.1z"/>
		<path class="st3" d="M532.2,248.7l6.5,0.8c-1.1,3.8-3,6.7-5.7,8.9s-6.3,3.2-10.6,3.2c-5.5,0-9.8-1.7-13-5.1
			c-3.2-3.4-4.7-8.1-4.7-14.1c0-6.2,1.6-11.2,4.8-14.5c3.3-3.5,7.4-5.2,12.5-5.2c5,0,9.1,1.7,12.2,5.1c3.2,3.4,4.7,8.1,4.7,14.3
			c0,0.3,0,0.9,0,1.7h-27.7c0.2,4.1,1.4,7.3,3.5,9.4c2.1,2.2,4.6,3.3,7.8,3.3c2.3,0,4.3-0.6,5.9-1.8
			C529.9,253.4,531.3,251.5,532.2,248.7z M511.5,238.5h20.8c-0.3-3.2-1.1-5.5-2.4-7.1c-2-2.4-4.6-3.7-7.8-3.7c-3,0-5.4,0.9-7.3,3
			C512.7,232.7,511.7,235.3,511.5,238.5z"/>
	</g>
	<g>
		<path class="st3" d="M354.6,76.7H386v104.4h-20.3v-70.6c0-2,0-4.9,0.1-8.5c0-3.7,0.1-6.5,0.1-8.5L346,181.1h-21.2l-19.6-87.6
			c0,2,0,4.8,0.1,8.5c0,3.7,0.1,6.5,0.1,8.5v70.6H285V76.7h31.7l19,82.1L354.6,76.7z"/>
		<path class="st3" d="M482,76.7v18.5h-31.2v85.9h-22V95.2h-31.4V76.7H482z"/>
		<path class="st3" d="M570.6,76.7v18.5h-31.2v85.9h-22V95.2h-31.4V76.7H570.6z"/>
	</g>
</g>
</svg>
